<?xml version="1.0" encoding="iso-8859-1"?>
<!-- Uploaded to: SVG Repo, www.svgrepo.com, Generator: SVG Repo Mixer Tools -->
<svg height="800px" width="800px" version="1.1" id="Layer_1" xmlns="http://www.w3.org/2000/svg" xmlns:xlink="http://www.w3.org/1999/xlink" 
	 viewBox="0 0 512 512" xml:space="preserve">
<path style="fill:#13B7E6;" d="M445.512,496.204H66.488C29.92,496.204,0,466.284,0,429.716V193.628
	c0-36.568,29.92-66.488,66.488-66.488h379.024c36.568,0,66.488,29.92,66.488,66.488v236.088
	C512,466.284,482.08,496.204,445.512,496.204z"/>
<path d="M402.152,202.204h-32v-117c0-20.624-16.768-37.408-37.392-37.408H179.248c-20.624,0-37.392,16.784-37.392,37.408v117h-32
	v-117c0-38.264,31.128-69.408,69.392-69.408H332.76c38.264,0,69.392,31.144,69.392,69.408V202.204z"/>
<g>
	<path style="fill:#FFFFFF;" d="M106.512,409.324c6.92,1.272,17.024,1.56,26.504-1.296c10.216-3.072,14.336-8.928,12.408-15.36
		c-1.848-6.12-7.56-8.2-20.656-8.88c-18.056-0.776-31.432-6.608-35.728-20.904c-5.056-16.776,5.08-33.824,28.272-40.808
		c11.08-3.336,19.952-3.464,26.584-2.608l0.44,19.44c-4.512-0.712-12.344-1.36-21.968,1.536c-9.632,2.904-12.976,8.68-11.44,13.784
		c1.896,6.272,8.264,7.384,22.408,8.368c19.288,1.176,30.176,7.776,34.36,21.616c4.968,16.488-3.512,34.32-30.488,42.456
		c-11.24,3.384-23.2,3.8-29.664,2.408L106.512,409.324z"/>
	<path style="fill:#FFFFFF;" d="M158.928,305.548l22.168-6.68l12.264,40.704l0.296-0.08c1.408-3.76,3.616-6.976,6.544-9.928
		c2.688-2.728,6.616-5.008,10.704-6.24c14.144-4.264,27.88,2.248,34.344,23.704l12.568,41.712l-22.192,6.68l-11.808-39.24
		c-2.808-9.336-7.952-14.784-16.264-12.288c-5.848,1.76-8.36,6.64-8.776,11.072c-0.128,1.632,0.288,3.568,0.776,5.176l12.736,42.296
		l-22.168,6.68L158.928,305.548z"/>
	<path style="fill:#FFFFFF;" d="M335.056,325.692c7.856,26.104-7.056,43.656-26.168,49.408c-20.856,6.288-41.032-2.592-47.976-25.64
		c-6.952-23.048,3.784-42.344,26.688-49.24C309.488,293.62,328.592,304.252,335.056,325.692z M283.64,341.98
		c3.688,12.264,11.56,19.904,21.032,17.048c8.608-2.592,11.56-12.88,7.688-25.712c-3.2-10.64-10.536-20.2-20.608-17.168
		C281.12,319.348,280.48,331.468,283.64,341.98z"/>
	<path style="fill:#FFFFFF;" d="M345.456,310.636c-2.808-9.336-5.52-17.272-7.8-23.76l19.264-5.8l4.008,9.616l0.288-0.08
		c2.968-9.176,9.952-15.568,20.312-18.688c15.608-4.704,33.704,4.64,40.544,27.408c7.824,25.968-4.968,43.176-20.872,47.968
		c-8.608,2.592-16.368,1.12-20.976-2.584l-0.304,0.088l10.688,35.44l-22.168,6.68L345.456,310.636z M372.68,320.732
		c0.52,1.752,1.152,3.312,1.832,4.536c3.264,5.544,9.736,8.52,16.152,6.592c9.632-2.904,12.896-12.64,9.248-24.736
		c-3.432-11.408-11.12-18.464-21.048-15.48c-6.264,1.88-10.408,8.24-9.88,15.24c0.048,1.248,0.344,2.76,0.736,4.072L372.68,320.732z
		"/>
</g>
</svg>